<svg xmlns="http://www.w3.org/2000/svg" viewBox="0 0 30 34" enable-background="new 0 0 30 34"><path d="M30 22.499c0 1.1-.749 2.5-1.665 3.111l-11.67 7.78c-.916.61-2.414.61-3.33 0l-11.67-7.78c-.916-.611-1.665-2.01-1.665-3.111v-10.998c0-1.1.749-2.5 1.665-3.111l11.67-7.78c.916-.61 2.414-.61 3.33 0l11.67 7.78c.916.611 1.665 2.01 1.665 3.111v10.998z" fill="#F95858"/><path d="M15.13 21.368c-.705 1.136-2.185 1.482-3.322.776-1.136-.706-1.482-2.186-.776-3.322l1.357-2.165c.451-.727 1.418-.953 2.144-.501.466.289 1.085.144 1.375-.322.289-.465.144-1.085-.321-1.374-1.659-1.03-3.864-.514-4.893 1.144l-1.358 2.165c-1.284 2.068-.649 4.786 1.419 6.071 1.025.636 2.226.801 3.328.543 1.103-.257 2.091-.934 2.743-1.962.289-.466.145-1.085-.321-1.375-.466-.289-1.085-.144-1.375.322m4.119-11.204c-2.068-1.285-4.786-.649-6.071 1.419-.289.466-.145 1.085.321 1.374.466.289 1.085.145 1.375-.321.705-1.137 2.185-1.482 3.322-.777 1.136.706 1.482 2.186.776 3.323l-1.357 2.165c-.448.741-1.414.967-2.145.501-.465-.289-1.084-.145-1.374.321-.289.466-.144 1.085.321 1.374.839.521 1.792.649 2.683.44.891-.208 1.69-.745 2.21-1.583l1.343-2.162c1.299-2.071.664-4.789-1.404-6.074" fill="#fff"/><path d="M15 1.152c.429 0 .834.106 1.11.29l11.67 7.78c.639.426 1.22 1.512 1.22 2.279v10.998c0 .767-.581 1.853-1.219 2.279l-11.67 7.78c-.276.184-.681.29-1.11.29s-.834-.106-1.11-.29l-11.67-7.78c-.64-.426-1.221-1.512-1.221-2.279v-10.998c0-.767.581-1.853 1.219-2.279l11.67-7.78c.277-.184.682-.29 1.111-.29m0-1c-.603 0-1.207.153-1.665.458l-11.67 7.78c-.916.611-1.665 2.01-1.665 3.111v10.998c0 1.1.749 2.5 1.665 3.111l11.67 7.78c.458.305 1.061.458 1.665.458s1.207-.153 1.665-.458l11.67-7.78c.916-.611 1.665-2.01 1.665-3.111v-10.998c0-1.1-.749-2.5-1.665-3.111l-11.67-7.78c-.458-.305-1.062-.458-1.665-.458z" fill="#F95858"/><g><path d="M25.621 25.245c.305-.409.46-.855.46-1.325 0-1.09-.848-1.911-1.972-1.911-.676 0-1.259.327-1.731.974l-1.927 2.61c-.746.994-1.143 2.109-1.143 3.22 0 2.338 1.827 4.035 4.346 4.035 2.518 0 4.346-1.717 4.346-4.082 0-1.627-.974-2.982-2.379-3.521" fill="#F95858"/><path d="M23.186 23.572c.324-.444.636-.564.923-.564.54 0 .972.36.972.911 0 .193-.048.468-.312.792l-1.115 1.379h.036c.156-.059.372-.095.563-.095 1.488 0 2.747 1.115 2.747 2.77 0 1.931-1.511 3.082-3.346 3.082-1.847 0-3.346-1.175-3.346-3.034 0-1.007.407-1.907.947-2.626l1.931-2.615zm.48 3.91c-.792 0-1.343.552-1.343 1.343 0 .732.527 1.344 1.331 1.344.791 0 1.331-.552 1.331-1.356 0-.768-.527-1.331-1.319-1.331" fill="#fff"/></g></svg>