<svg version="1.1" id="Small" xmlns="http://www.w3.org/2000/svg" x="0" y="0" viewBox="0 0 30 34" style="enable-background:new 0 0 30 34" xml:space="preserve"><style>.st0{fill:#f38844}.st1{fill:#fff}</style><path class="st0" d="M30 22.5c0 1.1-.7 2.5-1.7 3.1l-11.7 7.8c-.9.6-2.4.6-3.3 0L1.7 25.6C.8 25 0 23.6 0 22.5v-11C0 10.4.7 9 1.7 8.4L13.4.6c.9-.6 2.4-.6 3.3 0l11.7 7.8c.9.6 1.7 2 1.7 3.1l-.1 11z"/><path class="st1" d="M20.3 13.5c.7-.1 1.3-.5 1.6-1 .3-.6.3-1.3-.2-2.1-.9-1.5-.4-2.7-.4-2.8s0-.2-.1-.3-.2-.1-.3 0-2.9 1.5-2.9 4c0 1.1.8 2.1 1.7 2.2h.6z"/><path class="st0" d="M20 18.5c-.3 0-.5-.2-.5-.5v-6c0-.3.2-.5.5-.5s.5.2.5.5v6c0 .3-.2.5-.5.5z"/><path class="st1" d="M10.5 13.5c.7-.1 1.3-.5 1.6-1 .3-.6.3-1.3-.2-2.1-.9-1.5-.4-2.7-.4-2.8s0-.2-.1-.3-.2-.1-.3 0-2.9 1.5-2.9 4c0 1.1.8 2.1 1.7 2.2h.6z"/><path class="st0" d="M10.3 18.5c-.3 0-.5-.2-.5-.5v-6c0-.3.2-.5.5-.5s.5.2.5.5v6c0 .3-.3.5-.5.5z"/><path class="st1" d="M8.7 15.4c.5-.4 1-.5 1.3-.5.6 0 1.8.3 1.8 2v8.8c0 1.4-1 1.6-1.4 1.6S9 27.1 9 25.7v-7.4l-1.3 1c-.3.2-.6.3-.9.3-.7 0-1.2-.5-1.2-1.2 0-.4.2-.7.7-1.1l2.4-1.9zm9.3.7c.8-1.1 1.4-1.2 1.9-1.2.6 0 1.8.3 1.8 2.1v5.4h.6c1.2 0 1.3.8 1.3 1.2s-.2 1.2-1.3 1.2h-.6v1c0 1.3-.9 1.5-1.3 1.5s-1.3-.2-1.3-1.5v-1H15c-1.5 0-1.8-1.1-1.8-1.5 0-.3.1-.7.5-1.3 0-.1 4.3-5.9 4.3-5.9zm1 2.3-2.9 4.1H19v-4.1z"/></svg>