<?xml version="1.0" encoding="UTF-8"?>
<svg version="1.1" xmlns="http://www.w3.org/2000/svg" width="717" height="732">
<path d="M0 0 C0 4.95 0 9.9 0 15 C1.5675 14.94199219 3.135 14.88398438 4.75 14.82421875 C6.8333034 14.7772975 8.91663921 14.7317999 11 14.6875 C12.02996094 14.64560547 13.05992187 14.60371094 14.12109375 14.56054688 C21.12971994 14.44894455 25.5546012 15.49169466 31 20 C32 21 32 21 32 24.25 C30.92082139 28.29691978 29.77709345 29.68778671 26.33544922 31.99658203 C21.48933331 34.07869957 16.23791939 33.50374631 11.0625 33.3125 C9.32129883 33.27866211 9.32129883 33.27866211 7.54492188 33.24414062 C4.69526834 33.18550578 1.8483185 33.10348837 -1 33 C-1 35.97 -1 38.94 -1 42 C0.32 41.835 1.64 41.67 3 41.5 C7.769437 41.04284366 12.52409744 40.79283608 17.3125 40.6875 C17.99376953 40.65785156 18.67503906 40.62820312 19.37695312 40.59765625 C22.96672717 40.55529903 24.86703102 40.91491409 27.91796875 42.8671875 C30.3515781 45.36015318 31 46.5225157 31 50 C29.78012684 52.76076557 28.80362677 54.47914744 26.25292969 56.13232422 C23.42670616 57.22079392 21.16701375 57.22619402 18.140625 57.1953125 C17.02558594 57.18886719 15.91054688 57.18242188 14.76171875 57.17578125 C13.02341797 57.15064453 13.02341797 57.15064453 11.25 57.125 C10.07566406 57.11597656 8.90132813 57.10695312 7.69140625 57.09765625 C4.79406464 57.07410063 1.89713559 57.04120652 -1 57 C-0.98839844 57.84304687 -0.97679687 58.68609375 -0.96484375 59.5546875 C-0.95130859 61.19824219 -0.95130859 61.19824219 -0.9375 62.875 C-0.92589844 63.96554688 -0.91429687 65.05609375 -0.90234375 66.1796875 C-1 69 -1 69 -2 71 C-8.06890175 71.07408977 -14.13754097 71.12857359 -20.20678711 71.16479492 C-22.27193791 71.17989271 -24.3370566 71.20037274 -26.40209961 71.22631836 C-29.36840739 71.26265795 -32.33429171 71.2797163 -35.30078125 71.29296875 C-36.68841423 71.31619453 -36.68841423 71.31619453 -38.1040802 71.33988953 C-38.96474594 71.34011612 -39.82541168 71.34034271 -40.7121582 71.34057617 C-41.46938675 71.34723801 -42.2266153 71.35389984 -43.00679016 71.36076355 C-45.56543576 70.89765824 -46.38431066 69.99775416 -48 68 C-49.11097324 66.13215934 -50.17065497 64.23320728 -51.1875 62.3125 C-51.71730469 61.31863281 -52.24710937 60.32476562 -52.79296875 59.30078125 C-53.39044922 58.16189453 -53.39044922 58.16189453 -54 57 C-106.05480092 64.96543262 -156.45704457 86.4209381 -197.69677734 119.20507812 C-199.40619162 120.53723985 -201.13969154 121.83861547 -202.88525391 123.12304688 C-211.16356872 129.27603569 -218.51415878 136.04849482 -225.76660156 143.37548828 C-227.61983842 145.24479367 -229.48857033 147.09751392 -231.359375 148.94921875 C-239.26085394 156.83766733 -246.26903405 165.10234884 -253 174 C-253.85955648 175.08986454 -254.72238387 176.17715813 -255.58862305 177.26171875 C-275.00579645 201.57828145 -290.8345927 230.56686478 -301 260 C-301.32758301 260.93618164 -301.65516602 261.87236328 -301.99267578 262.83691406 C-312.15071385 292.21196185 -319.06010762 322.94141165 -319.203125 354.1328125 C-319.21009399 355.160009 -319.21706299 356.18720551 -319.22424316 357.24552917 C-319.24153087 360.53872831 -319.24796186 363.83175739 -319.25 367.125 C-319.25100708 368.24804535 -319.25201416 369.3710907 -319.25305176 370.52816772 C-319.24329835 386.57381284 -318.8445594 402.17125643 -316 418 C-315.70663068 419.78899686 -315.41366566 421.57806006 -315.12109375 423.3671875 C-306.91098601 471.3917152 -286.47074173 518.83639023 -256.39648438 557.20214844 C-255.07692072 558.9009713 -253.79090716 560.61935557 -252.515625 562.3515625 C-245.98050227 571.17564361 -238.63809288 579.12321671 -231 587 C-230.36835938 587.65355469 -229.73671875 588.30710937 -229.0859375 588.98046875 C-221.4296776 596.86920617 -213.68506978 604.24494572 -205 611 C-203.39583333 612.3125 -201.79166667 613.625 -200.1875 614.9375 C-173.63076041 636.04136673 -143.92320963 652.56681983 -112 664 C-111.16968262 664.3098584 -110.33936523 664.6197168 -109.48388672 664.93896484 C-92.15642998 671.4036113 -73.47380686 676.04131735 -55.12841797 678.52392578 C-52 679 -52 679 -51 680 C-50.89896745 682.79993597 -50.86029912 685.57468644 -50.8671875 688.375 C-50.86575241 689.63449463 -50.86575241 689.63449463 -50.86428833 690.91943359 C-50.86360652 692.69824295 -50.86546083 694.47705477 -50.86962891 696.25585938 C-50.87497717 698.98833776 -50.86968395 701.72065176 -50.86328125 704.453125 C-50.86394203 706.1770837 -50.86522319 707.90104229 -50.8671875 709.625 C-50.86516327 710.44790527 -50.86313904 711.27081055 -50.86105347 712.11865234 C-50.88504946 717.88504946 -50.88504946 717.88504946 -52 719 C-62.47099604 719.09953418 -72.87347279 716.37392647 -83 714 C-83.98919434 713.77070801 -84.97838867 713.54141602 -85.99755859 713.30517578 C-99.76739331 710.06458472 -113.18019016 706.11148911 -126.5 701.375 C-127.14835815 701.1452951 -127.79671631 700.91559021 -128.46472168 700.67892456 C-136.49909607 697.81624704 -144.29165279 694.64540587 -152 691 C-153.71333782 690.21309768 -155.42687832 689.42663648 -157.140625 688.640625 C-167.11457608 683.99920519 -176.74311966 679.12804035 -186.03662109 673.23779297 C-188.2068473 671.86959515 -190.39357251 670.5302334 -192.58203125 669.19140625 C-211.06944465 657.80287511 -227.98966972 644.6681469 -244 630 C-245.01533967 629.07781076 -246.03097679 628.15594891 -247.046875 627.234375 C-254.44417444 620.51008026 -261.60412651 613.73403889 -268.12890625 606.1484375 C-270.14849276 603.82949683 -272.22965234 601.57471415 -274.3125 599.3125 C-279.57601286 593.47608778 -284.29566175 587.28782465 -289 581 C-289.64453125 580.15179687 -290.2890625 579.30359375 -290.953125 578.4296875 C-316.15450376 544.65136892 -335.15094468 505.93131002 -346.35742188 465.31201172 C-346.98145695 463.06671835 -347.63654556 460.83250235 -348.296875 458.59765625 C-351.08980481 448.88864584 -352.99703945 439.08223259 -354.6875 429.125 C-354.88996338 427.94437988 -355.09242676 426.76375977 -355.30102539 425.54736328 C-358.38803604 406.56205479 -359.37931996 387.71778523 -359.3125 368.5 C-359.31067719 367.40671387 -359.30885437 366.31342773 -359.30697632 365.18701172 C-359.2587256 347.9487762 -358.69093486 331.05671307 -356 314 C-355.83371094 312.93136719 -355.66742188 311.86273438 -355.49609375 310.76171875 C-348.05153888 264.71576826 -331.63619738 216.60806226 -305 178 C-304.21269287 176.80043626 -303.42896868 175.59851495 -302.6484375 174.39453125 C-284.74921349 146.8828937 -262.69330665 119.55399409 -236.77734375 99.2109375 C-232.83973616 96.07635818 -229.06521636 92.75772194 -225.29638672 89.42285156 C-220.46513854 85.21864688 -215.29119103 81.60015133 -210 78 C-208.72612427 77.13157471 -208.72612427 77.13157471 -207.42651367 76.24560547 C-193.06279204 66.50818159 -178.69217619 57.59608662 -163.07666016 50.01171875 C-161.05983412 49.02915032 -159.05144029 48.03075703 -157.04296875 47.03125 C-135.33333844 36.37360265 -112.15252446 28.60799309 -88.6875 22.875 C-87.63191895 22.61485107 -86.57633789 22.35470215 -85.48876953 22.08666992 C-80.35719597 20.86716563 -75.32560943 19.85496866 -70.078125 19.296875 C-59.02103707 18.42076324 -59.02103707 18.42076324 -50.41015625 12.1953125 C-49.26539794 10.71974388 -48.12881516 9.23780061 -47 7.75 C-36.50236353 -5.81000431 -15.26793192 -1.19856954 0 0 Z " fill="#080808" transform="translate(359,0)"/>
<path d="M0 0 C10.14218933 0 10.14218933 0 15.16015625 1.06640625 C16.27124756 1.30085449 17.38233887 1.53530273 18.52709961 1.77685547 C19.69378174 2.03611816 20.86046387 2.29538086 22.0625 2.5625 C23.2904126 2.8320752 24.5183252 3.10165039 25.78344727 3.37939453 C45.09568929 7.71969984 63.67367513 13.54148999 82 21 C82.84062988 21.33725098 83.68125977 21.67450195 84.54736328 22.02197266 C95.34217766 26.37668717 105.78603793 31.27675834 116.125 36.625 C117.65302246 37.4142688 117.65302246 37.4142688 119.21191406 38.21948242 C126.03979082 41.81166079 132.55172897 45.76756681 139 50 C139.77021484 50.50136475 140.54042969 51.00272949 141.33398438 51.51928711 C152.37123119 58.73353888 162.92301184 66.4984283 173 75 C174.0491613 75.8740796 175.09865317 76.74776253 176.1484375 77.62109375 C191.37218771 90.33408504 206.55175301 103.70346422 218.87109375 119.3125 C221.11635885 122.1468897 223.45908438 124.87997006 225.8125 127.625 C257.32894105 165.47395625 279.30897849 211.66286634 292 259 C292.36665771 260.33925537 292.36665771 260.33925537 292.74072266 261.70556641 C295.84745037 273.19138013 297.90383358 284.81895647 299.75 296.5625 C299.85718353 297.24186615 299.96436707 297.9212323 300.07479858 298.6211853 C302.00320947 310.96814045 303.14786697 323.1356268 303.203125 335.6328125 C303.21009399 336.70029724 303.21706299 337.76778198 303.22424316 338.86761475 C303.24151766 342.28678384 303.24796108 345.70578911 303.25 349.125 C303.25100708 350.2916217 303.25201416 351.45824341 303.25305176 352.66021729 C303.24330707 369.31761976 302.85242258 385.55183383 300 402 C299.77521973 403.39774658 299.77521973 403.39774658 299.54589844 404.82373047 C296.305783 424.96954376 291.57975144 444.68582191 285 464 C284.66452148 464.99112793 284.32904297 465.98225586 283.98339844 467.00341797 C279.72320974 479.49064074 275.206997 491.54015231 268.96191406 503.17138672 C267.99244754 505.01435734 267.07916338 506.87587436 266.1796875 508.75390625 C257.14138976 527.56876078 246.38391154 546.2205025 233.12109375 562.37890625 C231.17209115 564.78734225 229.29792125 567.24118739 227.43676758 569.71777344 C222.81813607 575.84465847 217.90676046 581.56067654 212.66015625 587.15625 C210.18878225 589.79818873 207.77597825 592.48170191 205.375 595.1875 C199.31528988 601.92771233 192.9785333 608.29460122 186.08984375 614.1875 C183.72062571 616.24229845 181.42885123 618.3722622 179.125 620.5 C175.22354968 624.01721658 171.21747442 627.06983423 166.8671875 630.00390625 C164.67571684 631.52957588 162.55796825 633.08589557 160.4453125 634.71484375 C151.2922927 641.76858943 141.86351815 647.93669368 131.92871094 653.83056641 C129.49854701 655.30404555 127.1609151 656.90018971 124.8125 658.5 C89.4675208 681.02639038 45.0975629 693.99628198 4.04516602 700.63037109 C3.37026123 700.75234863 2.69535645 700.87432617 2 701 C1.30068359 701.05591309 0.60136719 701.11182617 -0.11914062 701.16943359 C-2.3131485 701.88098804 -2.3131485 701.88098804 -3.13305664 704.69628906 C-3.53387451 705.79166992 -3.93469238 706.88705078 -4.34765625 708.015625 C-6.16786423 711.29540163 -7.45723204 713.53783394 -11.16864014 714.6496582 C-17.89915029 715.54943024 -24.67894472 715.08737078 -31.4375 714.75 C-33.52523815 714.68977211 -35.61314209 714.63502526 -37.70117188 714.5859375 C-42.80488335 714.45402055 -47.90062582 714.24721933 -53 714 C-53 709.71 -53 705.42 -53 701 C-54.80726563 701.05800781 -56.61453125 701.11601563 -58.4765625 701.17578125 C-60.85934915 701.2226865 -63.24216376 701.26818583 -65.625 701.3125 C-66.81480469 701.35439453 -68.00460937 701.39628906 -69.23046875 701.43945312 C-79.12189882 701.57760159 -79.12189882 701.57760159 -82.76171875 698.63671875 C-86.26337943 694.5117258 -86.26337943 694.5117258 -86 691 C-83.625 688.25 -83.625 688.25 -81 686 C-80.67 685.67 -80.34 685.34 -80 685 C-77.50937834 684.89809731 -75.05303628 684.85927975 -72.5625 684.875 C-71.84126953 684.87693359 -71.12003906 684.87886719 -70.37695312 684.88085938 C-64.86442022 684.9251961 -59.47344138 685.31581983 -54 686 C-54 683.03 -54 680.06 -54 677 C-55.08099976 677.03927612 -55.08099976 677.03927612 -56.18383789 677.0793457 C-59.47649994 677.18383687 -62.76881235 677.24849163 -66.0625 677.3125 C-67.19623047 677.35439453 -68.32996094 677.39628906 -69.49804688 677.43945312 C-76.71528377 677.54466066 -80.71988931 677.08648181 -86 672 C-87.25 669 -87.25 669 -87 666 C-84.56754989 663.02700542 -82.19086664 661.12724443 -79 659 C-76.36450195 658.77294922 -76.36450195 658.77294922 -73.23828125 658.8046875 C-72.12001953 658.81113281 -71.00175781 658.81757812 -69.84960938 658.82421875 C-68.68236328 658.84097656 -67.51511719 658.85773437 -66.3125 658.875 C-64.54422852 658.88853516 -64.54422852 658.88853516 -62.74023438 658.90234375 C-59.82661974 658.92593577 -56.91341108 658.9588546 -54 659 C-54.01160156 657.92878906 -54.02320313 656.85757813 -54.03515625 655.75390625 C-54.04453299 654.35677257 -54.05363331 652.95963701 -54.0625 651.5625 C-54.07087891 650.85544922 -54.07925781 650.14839844 -54.08789062 649.41992188 C-54.09653588 647.61306441 -54.05220011 645.80612397 -54 644 C-50.26430452 640.26430452 -36.7778006 641.84865982 -31.64282227 641.75366211 C-22.63678386 641.79181821 -16.59173783 642.45917448 -9.94921875 649.13134766 C-8.00624706 651.47941951 -6.24487068 653.90658926 -4.46484375 656.37890625 C-2.18059894 659.31128287 -2.18059894 659.31128287 1.23925781 660.39428711 C3.92594798 660.16915587 6.384849 659.6542012 9 659 C10.36378784 658.72820923 10.36378784 658.72820923 11.75512695 658.45092773 C14.7304746 657.84483367 17.67469179 657.15542081 20.625 656.4375 C21.71039063 656.17356445 22.79578125 655.90962891 23.9140625 655.63769531 C59.09656736 646.83188897 93.1208647 632.65254415 123 612 C123.61665527 611.57477051 124.23331055 611.14954102 124.86865234 610.71142578 C128.96076926 607.87237641 132.99758893 604.96400513 137 602 C137.54076172 601.59958496 138.08152344 601.19916992 138.63867188 600.78662109 C156.37717368 587.56792362 173.36635637 572.88494953 187.06640625 555.4296875 C188.93486933 553.08184096 190.90075487 550.88960464 192.9375 548.6875 C211.16303917 528.36457736 226.36944707 501.99840963 237 477 C237.56210444 475.73029356 238.12461835 474.46076833 238.6875 473.19140625 C253.58764352 438.96698697 263.11866776 399.57044842 263.16796875 362.13671875 C263.17129715 361.22404739 263.17462555 360.31137604 263.17805481 359.37104797 C263.18308466 357.44748431 263.18546437 355.52391203 263.18530273 353.6003418 C263.18746586 350.73275366 263.20559956 347.86556604 263.22460938 344.99804688 C263.28418811 326.38324772 261.69124355 308.23506252 257.9375 290 C257.78860321 289.26385468 257.63970642 288.52770935 257.48629761 287.76925659 C252.94607529 265.49836227 246.18504945 243.80642902 237 223 C236.63326172 222.16629883 236.26652344 221.33259766 235.88867188 220.47363281 C225.81275727 197.85823397 213.15077534 175.51167357 197.13671875 156.53515625 C195.09124569 154.10826043 193.13700126 151.62920471 191.1875 149.125 C179.8992362 135.00910405 166.93457847 121.30890629 152.6953125 110.16015625 C150.4540231 108.36387648 148.30772272 106.51817453 146.16015625 104.61328125 C105.35990611 68.76761969 52.25634913 49.96738192 0 39 C0 26.13 0 13.26 0 0 Z " fill="#070707" transform="translate(405,18)"/>
<path d="M0 0 C1.17731689 0.00563965 2.35463379 0.0112793 3.56762695 0.01708984 C20.34046812 0.24935926 35.7949926 3.43946084 50.75 11.3125 C50.19468251 16.28931183 48.54650256 20.26317073 46.28515625 24.66796875 C45.93626343 25.36287415 45.58737061 26.05777954 45.22790527 26.77374268 C44.09738811 29.01994625 42.95530847 31.26002852 41.8125 33.5 C41.02870627 35.04995419 40.24542369 36.60016695 39.46264648 38.15063477 C34.38632004 48.18535339 29.23235499 58.1777746 23.93115234 68.09570312 C21.64435666 72.38758093 19.38744073 76.69525007 17.125 81 C16.27875469 82.6081302 15.43241141 84.21620886 14.5859375 85.82421875 C13.67714844 87.55091797 13.67714844 87.55091797 12.75 89.3125 C11.76 88.9825 10.77 88.6525 9.75 88.3125 C9.01171875 86.16015625 9.01171875 86.16015625 8.4375 83.375 C6.11620479 74.20885994 2.31141685 67.63670861 -5.7109375 62.46875 C-12.47824977 59.3870201 -18.9348863 58.99599897 -26.25 59.0625 C-27.10078125 59.05476563 -27.9515625 59.04703125 -28.828125 59.0390625 C-42.92448979 59.08230288 -55.02717181 64.76060466 -65.30859375 74.203125 C-81.27568705 90.50223725 -81.37784683 115.55485368 -81.43945312 136.95751953 C-81.44741244 138.5043001 -81.45580168 140.0510785 -81.46458435 141.59785461 C-81.482517 144.90547166 -81.49757508 148.21308435 -81.51036072 151.52072525 C-81.53070506 156.74748048 -81.55833356 161.97418212 -81.58703613 167.20089722 C-81.65197949 179.22425747 -81.70776247 191.24765672 -81.76302338 203.27106476 C-81.81385952 214.32327033 -81.86663731 225.37545596 -81.92754889 236.42761123 C-81.95593175 241.62820985 -81.97951246 246.82880175 -81.99947357 252.02943921 C-82.0128167 255.25150969 -82.03022898 258.4735486 -82.04878426 261.69559288 C-82.05656736 263.19485239 -82.06262501 264.69412194 -82.06687737 266.19339561 C-82.07288514 268.23092841 -82.08549872 270.26843862 -82.09851074 272.30593872 C-82.10366447 273.44850191 -82.10881821 274.5910651 -82.11412811 275.76825142 C-82.25 278.3125 -82.25 278.3125 -83.25 279.3125 C-109.32 279.3125 -135.39 279.3125 -162.25 279.3125 C-162.25 189.2225 -162.25 99.1325 -162.25 6.3125 C-137.83 6.3125 -113.41 6.3125 -88.25 6.3125 C-87.92 16.8725 -87.59 27.4325 -87.25 38.3125 C-85.47625 36.476875 -83.7025 34.64125 -81.875 32.75 C-76.74093345 27.55514632 -71.46470923 23.18919965 -65.25 19.3125 C-64.42757812 18.79171875 -63.60515625 18.2709375 -62.7578125 17.734375 C-60.28223498 16.20738326 -57.77972691 14.74774918 -55.25 13.3125 C-54.52941406 12.89226562 -53.80882812 12.47203125 -53.06640625 12.0390625 C-47.58378222 9.05545081 -41.85689623 7.04372909 -35.9375 5.125 C-35.17961182 4.87492188 -34.42172363 4.62484375 -33.64086914 4.3671875 C-22.61472151 0.92768945 -11.50450955 -0.05833507 0 0 Z " fill="#050505" transform="translate(304.25,231.6875)"/>
<path d="M0 0 C1.72458279 1.50238178 3.43418263 3.02221645 5.125 4.5625 C5.84300781 5.18769531 6.56101562 5.81289063 7.30078125 6.45703125 C26.18262887 23.8723276 30.08436595 49.58003201 31.23800063 73.94953775 C31.40621314 79.61971013 31.38743652 85.28937507 31.36791992 90.96142578 C31.36899647 92.81479967 31.37094064 94.66817322 31.37367249 96.52154541 C31.37845846 101.48730549 31.37094905 106.45297366 31.36071944 111.41872263 C31.35185497 116.6338733 31.35369786 121.8490218 31.3540802 127.06417847 C31.35314861 135.79719561 31.34452531 144.53017765 31.33081055 153.26318359 C31.31500159 163.36724729 31.30981575 173.47127285 31.3105461 183.57534802 C31.31121991 194.35276217 31.30429843 205.1301616 31.2950995 215.90757132 C31.29296591 219.01194025 31.29225807 222.11630682 31.29186058 225.22067642 C31.29086025 230.07829699 31.28478931 234.93588526 31.27469444 239.79349518 C31.27176218 241.57980273 31.27054553 243.36611399 31.27112198 245.15242386 C31.27160904 247.57928142 31.26599358 250.00604704 31.25871277 252.43289185 C31.26026137 253.14851701 31.26180997 253.86414217 31.2634055 254.60145295 C31.23918105 259.44831895 31.23918105 259.44831895 30.125 260.5625 C27.66055943 260.65750548 25.22425374 260.68807985 22.75952148 260.67602539 C21.98884338 260.67617142 21.21816528 260.67631744 20.4241333 260.6764679 C17.86475861 260.6757686 15.3054558 260.66797545 12.74609375 260.66015625 C10.97632385 260.65829213 9.20655344 260.6568682 7.43678284 260.65586853 C2.76948634 260.65204288 -1.89777923 260.6422122 -6.56506348 260.63116455 C-11.32397035 260.62095144 -16.08288221 260.61637113 -20.84179688 260.61132812 C-30.18621153 260.60058997 -39.5306032 260.58351299 -48.875 260.5625 C-48.87923194 259.65527537 -48.88346388 258.74805075 -48.88782406 257.81333447 C-48.99124881 235.71135446 -49.09990395 213.60940551 -49.21433926 191.50747967 C-49.26955451 180.81904347 -49.32301689 170.13060394 -49.37231445 159.44213867 C-49.41530002 150.12318569 -49.46161348 140.80425612 -49.51187855 131.48533946 C-49.53836415 126.55370226 -49.56321352 121.62206936 -49.58407402 116.69040489 C-49.60378781 112.04228909 -49.62797358 107.39421738 -49.65549088 102.74614143 C-49.66478385 101.04629703 -49.67248624 99.34644301 -49.67841911 97.64658356 C-49.02899303 73.07618619 -49.02899303 73.07618619 -58.19921875 51.05078125 C-69.22855527 41.25549637 -80.41180075 39.70190206 -94.55566406 40.37158203 C-106.6891493 41.37035945 -118.10697818 47.7762032 -126.32421875 56.640625 C-133.37999684 65.38481347 -137.17326986 75.75557946 -139.875 86.5625 C-153.735 86.5625 -167.595 86.5625 -181.875 86.5625 C-180.75 71.9375 -180.75 71.9375 -179.84350586 65.84448242 C-179.74582413 65.17934128 -179.6481424 64.51420013 -179.54750061 63.8289032 C-179.23252197 61.69127171 -178.91128563 59.55463692 -178.58984375 57.41796875 C-178.36667667 55.91203036 -178.1439109 54.40603245 -177.92152405 52.89997864 C-177.34189945 48.98193423 -176.7569148 45.06470939 -176.17071533 41.14764404 C-175.57078438 37.1321239 -174.97605711 33.11583332 -174.38085938 29.09960938 C-173.21726043 21.2531537 -172.04798381 13.40755818 -170.875 5.5625 C-166.875 5.5625 -166.875 5.5625 -164.91015625 7.03125 C-160.52300936 11.54870818 -156.92705641 16.0453211 -153.875 21.5625 C-150.95807603 20.25150078 -148.96494959 18.87139205 -146.7734375 16.55078125 C-146.20625 15.96119629 -145.6390625 15.37161133 -145.0546875 14.76416016 C-144.45914063 14.1407373 -143.86359375 13.51731445 -143.25 12.875 C-137.8383733 7.35575572 -132.51419471 2.58595183 -125.875 -1.4375 C-124.84246094 -2.09105469 -123.80992187 -2.74460938 -122.74609375 -3.41796875 C-87.66148633 -25.02529319 -32.97858662 -26.45585096 0 0 Z " fill="#050505" transform="translate(538.875,250.4375)"/>
<path d="M0 0 C0.94115361 3.06263679 1.00406919 5.3435174 0.55079651 8.50518799 C0.42595886 9.40258698 0.30112122 10.29998596 0.17250061 11.22457886 C-0.04328392 12.68977463 -0.04328392 12.68977463 -0.26342773 14.18457031 C-0.48266403 15.73626419 -0.48266403 15.73626419 -0.70632935 17.31930542 C-1.19148021 20.73999201 -1.68749084 24.15901109 -2.18359375 27.578125 C-2.52199555 29.94885889 -2.85971978 32.31968959 -3.1967926 34.69061279 C-4.08600799 40.93213715 -4.98443663 47.17230186 -5.88476562 53.41223145 C-6.80177311 59.77923635 -7.71009515 66.14747935 -8.61914062 72.515625 C-10.40424363 85.01164573 -12.19878406 97.50629221 -14 110 C-13.09659882 110.05836533 -12.19319763 110.11673065 -11.26242065 110.17686462 C-4.387434 110.64083213 2.42376004 111.19793035 9.2421875 112.19140625 C10.02143585 112.30097153 10.8006842 112.4105368 11.60354614 112.52342224 C14.02802057 112.86532982 16.45150077 113.21375492 18.875 113.5625 C20.54551083 113.79926659 22.21608349 114.03559734 23.88671875 114.27148438 C27.92520737 114.84265016 31.96282118 115.41965155 36 116 C35.125 120.765625 35.125 120.765625 34 122.875 C32.60765433 125.83373456 32.37234039 128.77304997 32 132 C31.01 132 30.02 132 29 132 C28.82599167 132.55266037 28.65198334 133.10532074 28.47270203 133.67472839 C26.73060152 139.07022351 24.6936462 144.21229782 22.33203125 149.36328125 C21.98026825 150.14045502 21.62850525 150.91762878 21.26608276 151.71835327 C20.51128508 153.38483122 19.75451921 155.05041891 18.99594116 156.71517944 C16.9598843 161.18375169 14.93835624 165.65890263 12.9140625 170.1328125 C12.5012352 171.04401352 12.0884079 171.95521454 11.66307068 172.89402771 C7.96332078 181.06469633 4.31181741 189.25627883 0.6769104 197.45596313 C-0.30728655 199.67574147 -1.292709 201.89497148 -2.27856445 204.11401367 C-4.82935822 209.85583135 -7.37999057 215.59770918 -9.92236328 221.34326172 C-11.45012944 224.79558434 -12.98221541 228.24595835 -14.51742554 231.69497681 C-15.08342182 232.96878566 -15.64776796 234.24332918 -16.21035767 235.51864624 C-16.97715807 237.25648923 -17.75013128 238.99160469 -18.5234375 240.7265625 C-19.1719165 242.18956787 -19.1719165 242.18956787 -19.83349609 243.68212891 C-21 246 -21 246 -23 248 C-22.30554697 237.19226791 -20.77576441 226.51478636 -19.27734375 215.796875 C-19.00944752 213.86350348 -18.74183858 211.93009213 -18.47450256 209.99664307 C-17.7753891 204.94607235 -17.07241345 199.89604676 -16.36859131 194.84613037 C-15.64896169 189.67769605 -14.9330424 184.50874793 -14.21679688 179.33984375 C-12.81479835 169.22606048 -11.40871306 159.11285005 -10 149 C-11.31092369 148.95897911 -11.31092369 148.95897911 -12.64833069 148.91712952 C-15.9527148 148.81331795 -19.25707263 148.70873114 -22.56141663 148.60365295 C-23.97996587 148.55869452 -25.39852439 148.51402752 -26.8170929 148.46968079 C-38.551292 148.10254111 -50.27603865 147.61429898 -62 147 C-61.41069911 141.04006735 -59.07135622 136.00385576 -56.71484375 130.5703125 C-56.27091782 129.53224457 -55.82699188 128.49417664 -55.36961365 127.4246521 C-53.89847049 123.98872656 -52.41801515 120.55689641 -50.9375 117.125 C-49.903206 114.71445118 -48.86952449 112.30363947 -47.83642578 109.89257812 C-45.66835713 104.83462146 -43.4959521 99.77854731 -41.32080078 94.72363281 C-38.06705481 87.16121222 -34.82709645 79.59293003 -31.58984375 72.0234375 C-25.73843606 58.34385375 -19.87370369 44.67002431 -14 31 C-13.61036072 30.09292297 -13.22072144 29.18584595 -12.8192749 28.25128174 C-10.84762691 23.66206941 -8.87354145 19.07392892 -6.89361572 14.48828125 C-6.09029248 12.62689805 -5.28900605 10.76463622 -4.48779297 8.90234375 C-4.02904785 7.84273437 -3.57030273 6.783125 -3.09765625 5.69140625 C-2.71101807 4.79623291 -2.32437988 3.90105957 -1.92602539 2.97875977 C-1 1 -1 1 0 0 Z " fill="#EF8525" transform="translate(364,236)"/>
<path d="M0 0 C0.66 0.33 1.32 0.66 2 1 C-9.88 12.88 -21.76 24.76 -34 37 C-34.66 36.67 -35.32 36.34 -36 36 C-29.41129074 28.71248824 -22.68764419 21.58224206 -15.75 14.625 C-15.10160156 13.97208984 -14.45320313 13.31917969 -13.78515625 12.64648438 C-9.3555266 8.2303323 -4.75392066 4.06424083 0 0 Z " fill="#595959" transform="translate(122,99)"/>
<path d="M0 0 C1.4049404 3.89060419 0.69513239 7.23092362 0.0625 11.25 C-0.13214844 12.51328125 -0.32679688 13.7765625 -0.52734375 15.078125 C-0.76130859 16.52445313 -0.76130859 16.52445313 -1 18 C-1.33 18 -1.66 18 -2 18 C-2.33 16.02 -2.66 14.04 -3 12 C-3.66 12 -4.32 12 -5 12 C-4.54738642 10.56068883 -4.08767021 9.12361001 -3.625 7.6875 C-3.24214844 6.48673828 -3.24214844 6.48673828 -2.8515625 5.26171875 C-2 3 -2 3 0 0 Z " fill="#F5B67D" transform="translate(364,236)"/>
<path d="M0 0 C0.33 0 0.66 0 1 0 C2.07421875 5.859375 2.07421875 5.859375 2 8 C1.01 9.32 0.02 10.64 -1 12 C-0.67 8.04 -0.34 4.08 0 0 Z " fill="#F8CAA1" transform="translate(342,472)"/>
</svg>
